<svg xmlns="http://www.w3.org/2000/svg" viewBox="0 0 530 165" width="530" height="165">
	<style>
		tspan { white-space:pre }
	</style>
	<path id="Distributed Mailer  System Test " fill="#000000" d="M20.12 68.75Q19.67 64.89 19.45 61.92Q19.22 58.95 19.11 56.04Q19 53.07 18.94 49.82Q18.94 46.52 18.94 42.04Q18.94 41.14 18.83 39.97Q18.78 38.79 18.78 37.67Q18.78 36.55 18.89 35.66Q19.06 34.7 19.5 34.26Q20.01 33.81 20.74 33.58Q21.52 33.36 22.42 33.25Q23.31 33.14 24.26 33.14Q25.22 33.08 26.17 33.08Q29.53 32.86 32.55 32.97Q35.63 33.08 38.21 33.53Q40.78 33.98 42.74 34.76Q44.76 35.54 45.88 36.66Q48.57 39.35 50.25 42.49Q51.98 45.57 52.43 49.6Q52.88 52.29 52.71 55.7Q52.6 59.06 51.26 62.7Q50.58 64.5 49.3 65.9Q48.06 67.24 46.5 68.25Q44.93 69.26 43.19 69.98Q41.46 70.66 39.89 71.1Q37.65 71.55 35.02 71.61Q32.38 71.66 29.7 71.66Q28.58 71.66 27.01 71.61Q25.5 71.55 24.04 71.33Q22.58 71.05 21.46 70.49Q20.34 69.87 20.12 68.75ZM45.32 64.55Q47.22 62.76 48.12 59.85Q49.07 56.94 49.02 53.74Q48.96 50.5 48.01 47.36Q47.06 44.17 45.26 41.82Q43.53 39.46 40.95 38.29Q38.38 37.11 35.07 37.84Q34.85 38.06 34.74 38.9Q34.62 39.69 34.57 40.7Q34.51 41.7 34.51 42.71Q34.51 43.72 34.51 44.39Q34.51 50.72 34.79 56.54Q35.07 62.37 35.07 66.9Q36.64 67.35 38.1 67.3Q39.55 67.18 40.84 66.85Q42.13 66.46 43.25 65.84Q44.37 65.22 45.32 64.55ZM80.21 38.12Q80.54 38.12 80.71 38.34Q80.94 38.57 80.99 38.9Q81.1 39.18 81.1 39.52Q81.16 39.8 81.16 39.97Q80.99 40.7 80.43 40.98Q79.87 41.2 79.2 41.26Q78.53 41.26 77.86 41.26Q77.24 41.2 76.9 41.37Q76.57 45.96 76.74 50.89Q76.9 55.76 76.9 61.08Q76.9 63.21 76.96 64.94Q77.02 66.68 77.41 68.14Q78.47 68.14 79.03 68.19Q79.59 68.25 80.66 68.58Q80.99 68.92 81.1 69.42Q81.22 69.93 81.05 70.38Q80.88 70.82 80.43 71.16Q79.98 71.44 79.26 71.44Q77.3 71.44 74.78 71.55Q72.31 71.61 69.51 71.72Q66.71 71.78 63.69 71.83Q60.66 71.89 57.7 71.89Q56.97 71.72 56.63 71.27Q56.35 70.77 56.3 70.26Q56.3 69.7 56.41 69.26Q56.58 68.75 56.74 68.58Q56.91 68.25 57.47 68.19Q58.03 68.14 58.7 68.19Q59.43 68.25 60.16 68.3Q60.89 68.3 61.45 68.14Q61.78 61.75 61.62 54.75Q61.45 47.75 61.45 41.37Q60.55 41.2 59.54 41.14Q58.59 41.09 57.75 40.92Q56.91 40.75 56.35 40.36Q55.79 39.91 55.79 39.02Q55.96 38.34 56.41 38.06Q56.91 37.73 57.53 37.67Q58.14 37.56 58.82 37.62Q59.49 37.62 59.99 37.62L70.35 37.62Q72.87 37.62 75.45 37.67Q78.08 37.73 80.21 38.12ZM104.34 38.68Q105.07 38.96 105.74 39.46Q106.42 39.91 106.81 40.47Q107.26 40.98 107.37 41.54Q107.54 42.04 107.26 42.38Q106.58 43.16 105.58 42.99Q104.62 42.77 103.84 42.38Q103.67 42.38 102.89 41.98Q102.1 41.54 100.98 41.2Q99.92 40.81 98.69 40.75Q97.51 40.7 96.5 41.42Q95.44 42.15 95.05 43.22Q94.66 44.28 94.71 45.34Q94.82 46.41 95.27 47.36Q95.78 48.31 96.5 48.82Q98.74 50.94 100.59 52.34Q102.44 53.74 103.78 54.92Q105.18 56.1 106.02 57.38Q106.92 58.67 107.26 60.63Q107.93 63.99 106.86 66.29Q105.86 68.53 103.78 69.82Q101.71 71.1 99.02 71.55Q96.34 72 93.76 71.78Q91.18 71.5 89.06 70.66Q86.98 69.76 86.09 68.47Q86.03 68.36 85.7 67.97Q85.42 67.52 85.14 66.96Q84.91 66.4 84.8 65.84Q84.74 65.22 85.19 64.78Q85.75 64.22 86.2 64.16Q86.65 64.1 86.98 64.33Q87.38 64.55 87.66 65Q87.94 65.39 88.1 65.78Q88.78 66.79 90.23 67.41Q91.69 68.02 93.2 67.97Q94.77 67.91 96 67.07Q97.29 66.23 97.51 64.33Q97.51 62.2 96.56 61.08Q95.61 59.96 94.21 59.23Q92.86 58.45 91.3 57.78Q89.78 57.1 88.55 55.93Q86.98 54.7 85.86 53.58Q84.74 52.4 84.07 51Q83.4 49.6 83.18 47.81Q83.01 45.96 83.34 43.38Q83.57 41.26 85.7 39.69Q87.82 38.06 90.9 37.34Q93.98 36.61 97.57 36.89Q101.21 37.11 104.34 38.68ZM130.66 41.2Q130.55 41.37 130.5 42.26Q130.44 43.1 130.44 44.45Q130.44 45.79 130.44 47.42Q130.5 49.04 130.55 50.72Q130.61 52.34 130.61 53.91Q130.66 55.42 130.66 56.54L130.66 68.64Q130.66 69.37 130.55 70.26Q130.44 71.16 129.77 71.44Q129.49 71.55 128.65 71.61Q127.86 71.66 126.74 71.72Q125.68 71.72 124.45 71.72Q123.22 71.72 122.1 71.72Q121.03 71.66 120.25 71.66Q119.46 71.61 119.24 71.61Q118.12 71.61 117.5 71.33Q116.89 71.05 116.89 69.76L116.89 60.91L116.89 41.48Q116.89 41.26 116.05 41.2Q115.26 41.14 114.2 41.2Q113.19 41.2 112.24 41.26Q111.34 41.26 111.18 41.2Q110.34 41.14 109.89 41.03Q109.5 40.86 109.33 40.58Q109.22 40.3 109.22 39.8Q109.27 39.24 109.27 38.4Q109.61 37.9 110.06 37.73Q110.5 37.5 110.95 37.5Q111.46 37.45 111.96 37.5Q112.46 37.56 112.97 37.56L135.76 37.56Q136.66 37.56 137.16 37.62Q137.72 37.62 138 37.78Q138.34 37.95 138.45 38.34Q138.56 38.74 138.56 39.41Q138.56 40.02 138.22 40.36Q137.94 40.7 137.5 40.92Q137.1 41.09 136.6 41.14Q136.15 41.2 135.76 41.2Q134.42 41.2 133.07 41.03Q131.73 40.86 130.66 41.2ZM157.82 60.3Q158.72 61.53 160.18 62.87Q161.63 64.22 163.03 65.45Q164.43 66.68 165.44 67.69Q166.45 68.7 166.39 69.26Q166.22 70.54 165.72 70.99Q165.22 71.44 164.43 71.33Q163.7 71.16 162.75 70.49Q161.8 69.82 160.68 68.81Q159.17 67.35 157.54 65.78Q155.92 64.16 154.46 63.1Q154.3 63.94 154.41 65.11Q154.52 66.29 154.58 67.46Q154.63 68.58 154.46 69.48Q154.35 70.38 153.62 70.66Q153.12 71.22 151.72 71.5Q150.38 71.78 148.75 71.83Q147.18 71.83 145.62 71.66Q144.1 71.5 143.21 71.1Q142.14 70.77 141.98 69.76Q141.81 68.75 141.81 67.35Q141.92 65.34 141.81 62.48Q141.75 59.57 141.58 56.43Q141.47 53.24 141.42 50.05Q141.36 46.8 141.47 44.17Q141.58 41.54 141.98 39.74Q142.37 37.95 143.21 37.56Q144.27 36.89 146.4 36.66Q148.58 36.44 150.99 36.55Q153.46 36.61 155.7 36.94Q157.99 37.22 159.22 37.56Q161.02 38.12 162.36 39.24Q163.76 40.3 164.66 41.7Q165.61 43.05 166.11 44.62Q166.62 46.13 166.78 47.53Q166.78 48.59 166.73 49.71Q166.73 50.83 166.56 51.9Q166.45 52.96 166.17 53.91Q165.89 54.81 165.33 55.48Q163.98 57.33 162.08 58.28Q160.23 59.23 157.82 60.3ZM154.02 57.38Q155.42 57.78 157.1 57.33Q158.78 56.88 160.18 55.98Q161.63 55.09 162.58 53.86Q163.54 52.62 163.54 51.39Q163.7 48.54 162.98 46.35Q162.3 44.11 161.02 42.6Q159.73 41.09 157.94 40.36Q156.2 39.58 154.24 39.58Q154.24 41.7 154.18 44.22Q154.18 46.74 154.13 49.26Q154.07 51.73 154.02 53.91Q154.02 56.04 154.02 57.38ZM192.71 38.12Q193.05 38.12 193.22 38.34Q193.44 38.57 193.5 38.9Q193.61 39.18 193.61 39.52Q193.66 39.8 193.66 39.97Q193.5 40.7 192.94 40.98Q192.38 41.2 191.7 41.26Q191.03 41.26 190.36 41.26Q189.74 41.2 189.41 41.37Q189.07 45.96 189.24 50.89Q189.41 55.76 189.41 61.08Q189.41 63.21 189.46 64.94Q189.52 66.68 189.91 68.14Q190.98 68.14 191.54 68.19Q192.1 68.25 193.16 68.58Q193.5 68.92 193.61 69.42Q193.72 69.93 193.55 70.38Q193.38 70.82 192.94 71.16Q192.49 71.44 191.76 71.44Q189.8 71.44 187.28 71.55Q184.82 71.61 182.02 71.72Q179.22 71.78 176.19 71.83Q173.17 71.89 170.2 71.89Q169.47 71.72 169.14 71.27Q168.86 70.77 168.8 70.26Q168.8 69.7 168.91 69.26Q169.08 68.75 169.25 68.58Q169.42 68.25 169.98 68.19Q170.54 68.14 171.21 68.19Q171.94 68.25 172.66 68.3Q173.39 68.3 173.95 68.14Q174.29 61.75 174.12 54.75Q173.95 47.75 173.95 41.37Q173.06 41.2 172.05 41.14Q171.1 41.09 170.26 40.92Q169.42 40.75 168.86 40.36Q168.3 39.91 168.3 39.02Q168.46 38.34 168.91 38.06Q169.42 37.73 170.03 37.67Q170.65 37.56 171.32 37.62Q171.99 37.62 172.5 37.62L182.86 37.62Q185.38 37.62 187.95 37.67Q190.58 37.73 192.71 38.12ZM215.84 55.87Q217.46 56.6 218.64 58.34Q219.82 60.02 220.32 62.03Q220.82 64.05 220.49 66.06Q220.15 68.02 218.75 69.26Q217.46 70.54 214.89 71.05Q212.31 71.55 209.23 71.66Q206.15 71.72 202.96 71.55Q199.77 71.33 197.25 71.16Q196.35 71.16 195.9 70.1Q195.51 68.98 195.4 67.52Q195.29 66.06 195.29 64.55Q195.34 62.98 195.34 62.09Q195.51 58.9 195.51 56.04Q195.57 53.18 195.57 50.5Q195.57 47.75 195.57 45.01Q195.62 42.21 195.79 39.18Q195.85 38.57 196.07 38.01Q196.3 37.56 196.74 37.17Q197.25 36.78 198.2 36.78Q199.1 36.78 201.11 36.78Q203.13 36.78 205.37 36.83Q207.61 36.89 209.62 37Q211.64 37.11 212.54 37.28Q214.5 37.28 216.01 38.06Q217.58 38.85 218.64 40.08Q219.7 41.31 220.32 42.77Q220.94 44.17 221.1 45.4Q221.44 47.02 221.05 48.59Q220.71 50.16 219.93 51.56Q219.14 52.9 218.02 54.02Q216.9 55.14 215.84 55.87ZM209.68 39.18Q209.51 40.81 209.4 42.71Q209.29 44.56 209.23 46.58Q209.18 48.54 209.18 50.44Q209.18 52.34 209.18 53.97Q211.53 54.3 213.32 53.63Q215.17 52.9 216.23 51.5Q217.3 50.05 217.52 48.09Q217.74 46.07 216.85 43.94Q216.06 41.82 214.44 40.53Q212.87 39.18 209.68 39.18ZM209.18 69.26Q212.76 69.65 215 68.3Q217.3 66.9 217.3 63.99Q217.3 62.42 216.62 61.25Q215.95 60.07 214.78 59.34Q213.6 58.62 212.03 58.39Q210.46 58.11 208.67 58.28Q208.67 59.57 208.67 61.02Q208.67 62.48 208.73 63.99Q208.78 65.45 208.9 66.85Q209.01 68.19 209.18 69.26ZM234.99 38.06Q235.61 39.74 235.66 42.43Q235.72 45.12 235.66 48.2Q235.61 51.28 235.61 54.42Q235.61 57.55 236.06 60.07Q236.5 62.59 237.62 64.22Q238.74 65.78 240.98 65.78Q242.78 65.56 243.84 63.88Q244.96 62.14 245.52 59.74Q246.08 57.27 246.25 54.36Q246.42 51.39 246.36 48.7Q246.36 45.96 246.25 43.78Q246.14 41.54 246.14 40.47Q246.14 39.58 246.3 38.85Q246.42 38.23 246.64 37.73Q246.92 37.22 247.42 37.22Q248.43 37.22 248.99 37.39Q249.55 37.56 249.83 37.95Q250.11 38.34 250.17 39.07Q250.22 39.8 250.22 40.86L250.22 49.71Q250.22 52.29 250.11 54.42Q250 56.49 249.72 58.34Q249.44 60.13 248.88 61.75Q248.32 63.38 247.42 64.94Q246.75 66.34 245.69 67.63Q244.68 68.92 243.11 69.87Q241.6 70.82 239.58 71.27Q237.57 71.66 234.99 71.33Q231.58 70.99 229.28 69.59Q227.04 68.14 225.58 65.95Q224.18 63.71 223.46 60.91Q222.73 58.11 222.39 55.09Q222.11 52.06 222.06 49.04Q222.06 45.96 222.06 43.22L222.06 39.58Q222.06 38.74 222.45 38.18Q222.84 37.62 223.4 37.34Q224.02 37 224.74 36.89Q225.53 36.72 226.2 36.72L229.84 36.72Q230.74 36.72 231.58 36.78Q232.42 36.78 233.14 36.89Q233.87 37 234.32 37.28Q234.82 37.56 234.99 38.06ZM272.57 41.2Q272.46 41.37 272.4 42.26Q272.34 43.1 272.34 44.45Q272.34 45.79 272.34 47.42Q272.4 49.04 272.46 50.72Q272.51 52.34 272.51 53.91Q272.57 55.42 272.57 56.54L272.57 68.64Q272.57 69.37 272.46 70.26Q272.34 71.16 271.67 71.44Q271.39 71.55 270.55 71.61Q269.77 71.66 268.65 71.72Q267.58 71.72 266.35 71.72Q265.12 71.72 264 71.72Q262.94 71.66 262.15 71.66Q261.37 71.61 261.14 71.61Q260.02 71.61 259.41 71.33Q258.79 71.05 258.79 69.76L258.79 60.91L258.79 41.48Q258.79 41.26 257.95 41.2Q257.17 41.14 256.1 41.2Q255.1 41.2 254.14 41.26Q253.25 41.26 253.08 41.2Q252.24 41.14 251.79 41.03Q251.4 40.86 251.23 40.58Q251.12 40.3 251.12 39.8Q251.18 39.24 251.18 38.4Q251.51 37.9 251.96 37.73Q252.41 37.5 252.86 37.5Q253.36 37.45 253.86 37.5Q254.37 37.56 254.87 37.56L277.66 37.56Q278.56 37.56 279.06 37.62Q279.62 37.62 279.9 37.78Q280.24 37.95 280.35 38.34Q280.46 38.74 280.46 39.41Q280.46 40.02 280.13 40.36Q279.85 40.7 279.4 40.92Q279.01 41.09 278.5 41.14Q278.06 41.2 277.66 41.2Q276.32 41.2 274.98 41.03Q273.63 40.86 272.57 41.2ZM304.04 40.64L297.94 40.64Q297.71 41.87 297.66 43.83Q297.66 45.74 297.71 47.86Q297.77 49.99 297.82 52.12Q297.94 54.19 297.94 55.76Q298.61 55.98 299.17 56.04Q299.73 56.04 300.29 56.04Q300.85 55.98 301.41 55.93Q302.02 55.87 302.7 55.87Q303.93 55.93 304.71 55.98Q305.55 55.98 306.06 56.21Q306.56 56.38 306.78 56.88Q307.01 57.33 307.01 58.22Q307.01 58.9 305.89 59.12Q304.82 59.34 303.37 59.4Q301.91 59.4 300.34 59.4Q298.83 59.34 297.94 59.51Q297.71 60.46 297.71 61.47Q297.71 62.42 297.71 63.43Q297.77 64.44 297.71 65.5Q297.71 66.57 297.54 67.63Q298.1 67.86 299.17 67.86Q300.29 67.86 301.58 67.8Q302.92 67.74 304.26 67.74Q305.66 67.69 306.78 67.86Q307.9 67.97 308.58 68.36Q309.3 68.75 309.3 69.59Q309.3 70.43 308.63 70.88Q308.02 71.27 306.9 71.44Q305.78 71.61 304.26 71.61Q302.81 71.55 301.18 71.55Q298.89 71.33 295.86 71.55Q292.84 71.72 290.1 71.78Q287.35 71.78 285.39 71.33Q283.49 70.82 283.38 69.2Q283.04 63.04 283.1 56.71Q283.15 50.38 283.15 43.94Q283.15 43.22 283.15 42.38Q283.15 41.48 283.21 40.7Q283.26 39.86 283.32 39.24Q283.43 38.57 283.6 38.23Q283.99 37.9 285.22 37.73Q286.46 37.5 287.91 37.45Q289.42 37.34 290.82 37.34Q292.22 37.28 293.06 37.28L301.18 37.28Q302.25 37.28 303.59 37.17Q304.94 37.06 306.11 37.17Q307.29 37.22 308.07 37.62Q308.86 38.01 308.86 39.07Q308.86 39.8 308.3 40.14Q307.79 40.47 307.01 40.58Q306.28 40.7 305.44 40.7Q304.6 40.64 304.04 40.64ZM311.26 69.31Q310.93 66.23 310.76 63.43Q310.65 60.58 310.59 57.66Q310.54 54.75 310.48 51.56Q310.48 48.37 310.37 44.5Q310.37 43.89 310.26 42.94Q310.2 41.98 310.14 41.09Q310.14 40.14 310.2 39.41Q310.31 38.62 310.65 38.29Q311.1 37.73 311.77 37.45Q312.5 37.17 313.28 37.06Q314.12 36.94 314.9 36.94Q315.69 36.89 316.36 36.78Q319.22 36.55 321.79 36.72Q324.42 36.89 326.55 37.34Q328.74 37.78 330.42 38.51Q332.1 39.18 333.16 40.02Q334.45 41.09 335.4 42.6Q336.35 44.06 337.02 45.79Q337.7 47.47 338.09 49.38Q338.54 51.22 338.82 53.07Q339.15 55.59 339.1 58.34Q339.04 61.08 338.03 63.94Q337.47 65.5 336.35 66.9Q335.23 68.3 333.78 69.37Q332.38 70.43 330.81 71.1Q329.24 71.78 327.9 71.89Q325.49 72.06 323.53 72.11Q321.62 72.11 319.5 72.11Q318.54 72.11 317.2 72.06Q315.91 72 314.62 71.78Q313.39 71.5 312.44 70.94Q311.49 70.38 311.26 69.31ZM332.94 65.78Q334.56 64.38 335.18 61.92Q335.79 59.46 335.57 56.66Q335.4 53.8 334.56 50.94Q333.72 48.03 332.43 45.79Q331.14 43.5 329.46 42.15Q327.84 40.81 326.05 41.09Q325.82 41.2 325.71 41.82Q325.6 42.43 325.54 43.33Q325.49 44.17 325.49 45.12Q325.49 46.02 325.49 46.74Q325.49 49.43 325.54 52.4Q325.66 55.31 325.77 58.22Q325.88 61.14 325.94 63.82Q326.05 66.51 326.05 68.64Q327.45 68.7 328.4 68.47Q329.35 68.25 330.08 67.86Q330.86 67.41 331.48 66.9Q332.15 66.34 332.94 65.78ZM356.23 34.37Q357.07 33.58 358.47 33.53Q359.87 33.42 361.16 33.81Q362.34 34.26 363.74 35.66Q365.14 37 366.54 38.62Q367.94 40.25 369.28 41.82Q370.62 43.38 371.63 44.22Q372.19 43.83 373.03 42.82Q373.93 41.82 374.99 40.53Q376.11 39.24 377.34 37.9Q378.63 36.5 379.86 35.38Q381.15 34.26 382.38 33.58Q383.67 32.86 384.79 32.91Q386.08 32.97 387.09 33.58Q388.1 34.2 388.77 35.21Q389.5 36.16 389.83 37.5Q390.22 38.79 390.22 40.19Q390.22 43.05 390.28 46.35Q390.39 49.66 390.45 53.24Q390.5 56.82 390.5 60.52Q390.56 64.22 390.45 67.86Q390.45 68.02 390.45 68.64Q390.5 69.26 390.34 69.93Q390.22 70.6 389.89 71.22Q389.55 71.78 388.88 71.83Q387.82 71.94 386.3 72.06Q384.85 72.11 383.28 72.11Q381.71 72.06 380.26 71.94Q378.8 71.83 377.79 71.61Q377.06 71.44 376.67 71.05Q376.28 70.6 376.11 70.15Q375.94 69.65 375.94 69.2Q375.94 68.7 375.94 68.42Q376 67.18 376 65.11Q376 62.98 376 60.46Q376 57.94 376 55.2Q376.06 52.46 376.17 49.99Q376.17 49.43 375.78 49.71Q375.44 49.99 374.77 50.72Q374.15 51.45 373.26 52.46Q372.42 53.41 371.46 54.3Q370.57 55.2 369.62 55.87Q368.66 56.49 367.88 56.49Q366.87 56.26 365.64 55.26Q364.41 54.19 363.23 53.02Q362.11 51.84 361.16 50.83Q360.26 49.77 359.87 49.6Q359.42 49.38 359.42 50.05Q359.42 50.66 359.42 51.95Q359.37 55.09 359.42 58.22Q359.48 61.36 359.54 63.99Q359.59 66.57 359.54 68.47Q359.48 70.38 359.26 71.05Q359.09 71.5 358.42 71.78Q357.8 72 357.02 71.94Q356.29 71.89 355.67 71.44Q355.11 70.94 355.11 69.93L355.11 47.86Q355.11 46.63 355.06 44.67Q355 42.71 355.06 40.7Q355.11 38.68 355.34 36.94Q355.62 35.21 356.23 34.37ZM419.29 63.94Q419.29 64.78 419.29 65.84Q419.29 66.85 419.23 67.86Q419.23 68.86 419.06 69.82Q418.95 70.71 418.62 71.38Q418.39 71.83 416.82 72.11Q415.26 72.34 413.41 72.34Q411.62 72.34 410.05 72.11Q408.54 71.83 408.31 71.27Q407.98 70.26 407.92 68.64Q407.92 66.96 407.92 65.17Q407.98 63.32 407.98 61.64Q408.03 59.96 407.86 58.9Q406.58 58.73 405.06 58.73Q403.61 58.67 402.04 58.67Q400.47 58.67 398.9 58.67Q397.34 58.62 395.88 58.45Q395.54 60.02 395.54 61.75Q395.54 63.43 395.6 65.11Q395.71 66.79 395.71 68.3Q395.77 69.82 395.6 70.88Q395.49 71.61 394.93 71.89Q394.42 72.11 393.81 72.06Q393.25 71.94 392.8 71.5Q392.35 71.05 392.35 70.38Q392.35 68.47 392.3 66.62Q392.24 64.78 392.35 61.98Q392.46 58.78 392.52 55.7Q392.63 52.57 393.02 49.71Q393.42 46.86 394.31 44.45Q395.21 41.98 396.94 40.14Q398.06 38.85 399.86 37.84Q401.65 36.83 404.17 36.83Q407.7 36.83 410.22 37.95Q412.79 39.07 414.47 41.03Q416.21 42.99 417.22 45.62Q418.22 48.2 418.67 51.22Q419.18 54.25 419.29 57.5Q419.4 60.74 419.29 63.94ZM395.94 55.31L408.42 55.31Q408.42 51.45 407.98 48.76Q407.53 46.07 406.63 44.39Q405.79 42.71 404.56 41.98Q403.33 41.2 401.76 41.2Q400.7 41.2 399.86 41.98Q399.02 42.77 398.34 44.06Q397.73 45.34 397.28 46.91Q396.83 48.48 396.5 50.05Q396.22 51.62 396.05 53.02Q395.94 54.42 395.94 55.31ZM445.1 38.12Q445.44 38.12 445.61 38.34Q445.83 38.57 445.89 38.9Q446 39.18 446 39.52Q446.06 39.8 446.06 39.97Q445.89 40.7 445.33 40.98Q444.77 41.2 444.1 41.26Q443.42 41.26 442.75 41.26Q442.14 41.2 441.8 41.37Q441.46 45.96 441.63 50.89Q441.8 55.76 441.8 61.08Q441.8 63.21 441.86 64.94Q441.91 66.68 442.3 68.14Q443.37 68.14 443.93 68.19Q444.49 68.25 445.55 68.58Q445.89 68.92 446 69.42Q446.11 69.93 445.94 70.38Q445.78 70.82 445.33 71.16Q444.88 71.44 444.15 71.44Q442.19 71.44 439.67 71.55Q437.21 71.61 434.41 71.72Q431.61 71.78 428.58 71.83Q425.56 71.89 422.59 71.89Q421.86 71.72 421.53 71.27Q421.25 70.77 421.19 70.26Q421.19 69.7 421.3 69.26Q421.47 68.75 421.64 68.58Q421.81 68.25 422.37 68.19Q422.93 68.14 423.6 68.19Q424.33 68.25 425.06 68.3Q425.78 68.3 426.34 68.14Q426.68 61.75 426.51 54.75Q426.34 47.75 426.34 41.37Q425.45 41.2 424.44 41.14Q423.49 41.09 422.65 40.92Q421.81 40.75 421.25 40.36Q420.69 39.91 420.69 39.02Q420.86 38.34 421.3 38.06Q421.81 37.73 422.42 37.67Q423.04 37.56 423.71 37.62Q424.38 37.62 424.89 37.62L435.25 37.62Q437.77 37.62 440.34 37.67Q442.98 37.73 445.1 38.12ZM464.48 39.13Q464.59 43.55 464.54 46.74Q464.54 49.94 464.42 52.34Q464.37 54.75 464.26 56.6Q464.14 58.39 464.09 60.18Q464.09 61.92 464.14 63.82Q464.2 65.67 464.48 68.14Q465.38 68.14 466.44 68.19Q467.56 68.19 468.4 68.47Q469.3 68.7 469.74 69.2Q470.19 69.7 469.86 70.6Q469.69 71.1 468.96 71.33Q468.23 71.55 467.28 71.61Q466.38 71.66 465.43 71.61Q464.48 71.55 463.92 71.55Q460.73 71.55 458.54 71.66Q456.36 71.78 454.9 71.83Q453.5 71.89 452.66 71.78Q451.82 71.61 451.38 71.16Q450.93 70.66 450.65 69.7Q450.42 68.75 450.2 67.18Q450.2 66.57 450.2 65.11Q450.2 63.66 450.14 61.75Q450.14 59.79 450.09 57.61Q450.09 55.37 450.03 53.3Q449.98 51.22 449.86 49.43Q449.81 47.64 449.7 46.58Q449.7 44.67 449.75 42.66Q449.81 40.64 450.2 39.13Q450.31 38.29 451.38 37.73Q452.44 37.11 453.95 36.83Q455.52 36.55 457.31 36.55Q459.1 36.55 460.62 36.83Q462.18 37.11 463.25 37.73Q464.31 38.29 464.48 39.13ZM492.76 40.64L486.66 40.64Q486.43 41.87 486.38 43.83Q486.38 45.74 486.43 47.86Q486.49 49.99 486.54 52.12Q486.66 54.19 486.66 55.76Q487.33 55.98 487.89 56.04Q488.45 56.04 489.01 56.04Q489.57 55.98 490.13 55.93Q490.74 55.87 491.42 55.87Q492.65 55.93 493.43 55.98Q494.27 55.98 494.78 56.21Q495.28 56.38 495.5 56.88Q495.73 57.33 495.73 58.22Q495.73 58.9 494.61 59.12Q493.54 59.34 492.09 59.4Q490.63 59.4 489.06 59.4Q487.55 59.34 486.66 59.51Q486.43 60.46 486.43 61.47Q486.43 62.42 486.43 63.43Q486.49 64.44 486.43 65.5Q486.43 66.57 486.26 67.63Q486.82 67.86 487.89 67.86Q489.01 67.86 490.3 67.8Q491.64 67.74 492.98 67.74Q494.38 67.69 495.5 67.86Q496.62 67.97 497.3 68.36Q498.02 68.75 498.02 69.59Q498.02 70.43 497.35 70.88Q496.74 71.27 495.62 71.44Q494.5 71.61 492.98 71.61Q491.53 71.55 489.9 71.55Q487.61 71.33 484.58 71.55Q481.56 71.72 478.82 71.78Q476.07 71.78 474.11 71.33Q472.21 70.82 472.1 69.2Q471.76 63.04 471.82 56.71Q471.87 50.38 471.87 43.94Q471.87 43.22 471.87 42.38Q471.87 41.48 471.93 40.7Q471.98 39.86 472.04 39.24Q472.15 38.57 472.32 38.23Q472.71 37.9 473.94 37.73Q475.18 37.5 476.63 37.45Q478.14 37.34 479.54 37.34Q480.94 37.28 481.78 37.28L489.9 37.28Q490.97 37.28 492.31 37.17Q493.66 37.06 494.83 37.17Q496.01 37.22 496.79 37.62Q497.58 38.01 497.58 39.07Q497.58 39.8 497.02 40.14Q496.51 40.47 495.73 40.58Q495 40.7 494.16 40.7Q493.32 40.64 492.76 40.64ZM516.34 60.3Q517.23 61.53 518.69 62.87Q520.14 64.22 521.54 65.45Q522.94 66.68 523.95 67.69Q524.96 68.7 524.9 69.26Q524.74 70.54 524.23 70.99Q523.73 71.44 522.94 71.33Q522.22 71.16 521.26 70.49Q520.31 69.82 519.19 68.81Q517.68 67.35 516.06 65.78Q514.43 64.16 512.98 63.1Q512.81 63.94 512.92 65.11Q513.03 66.29 513.09 67.46Q513.14 68.58 512.98 69.48Q512.86 70.38 512.14 70.66Q511.63 71.22 510.23 71.5Q508.89 71.78 507.26 71.83Q505.7 71.83 504.13 71.66Q502.62 71.5 501.72 71.1Q500.66 70.77 500.49 69.76Q500.32 68.75 500.32 67.35Q500.43 65.34 500.32 62.48Q500.26 59.57 500.1 56.43Q499.98 53.24 499.93 50.05Q499.87 46.8 499.98 44.17Q500.1 41.54 500.49 39.74Q500.88 37.95 501.72 37.56Q502.78 36.89 504.91 36.66Q507.1 36.44 509.5 36.55Q511.97 36.61 514.21 36.94Q516.5 37.22 517.74 37.56Q519.53 38.12 520.87 39.24Q522.27 40.3 523.17 41.7Q524.12 43.05 524.62 44.62Q525.13 46.13 525.3 47.53Q525.3 48.59 525.24 49.71Q525.24 50.83 525.07 51.9Q524.96 52.96 524.68 53.91Q524.4 54.81 523.84 55.48Q522.5 57.33 520.59 58.28Q518.74 59.23 516.34 60.3ZM512.53 57.38Q513.93 57.78 515.61 57.33Q517.29 56.88 518.69 55.98Q520.14 55.09 521.1 53.86Q522.05 52.62 522.05 51.39Q522.22 48.54 521.49 46.35Q520.82 44.11 519.53 42.6Q518.24 41.09 516.45 40.36Q514.71 39.58 512.75 39.58Q512.75 41.7 512.7 44.22Q512.7 46.74 512.64 49.26Q512.58 51.73 512.53 53.91Q512.53 56.04 512.53 57.38ZM145.56 100.7Q146.4 100.98 147.24 101.54Q148.14 102.1 148.7 102.77Q149.26 103.44 149.37 104.22Q149.54 104.95 148.92 105.68Q148.58 106.02 148.08 106.07Q147.63 106.07 147.13 105.96Q146.62 105.85 146.06 105.62Q145.56 105.4 145.17 105.29Q143.49 104.62 141.86 104.28Q140.46 104 138.9 103.94Q137.38 103.89 136.15 104.5Q135.09 105.29 134.7 106.52Q134.36 107.7 134.47 108.98Q134.64 110.22 135.14 111.45Q135.7 112.62 136.49 113.41Q139.23 115.7 141.36 117.22Q143.54 118.73 145.06 120.13Q146.62 121.47 147.58 123.04Q148.58 124.55 148.92 126.85Q149.76 130.77 148.58 133.34Q147.46 135.92 145.17 137.43Q142.87 138.89 139.79 139.39Q136.77 139.9 133.8 139.67Q130.89 139.39 128.37 138.5Q125.9 137.6 124.78 136.31Q124 135.42 123.38 134.52Q122.77 133.62 122.6 132.9Q122.43 132.11 122.77 131.55Q123.16 130.99 124.34 130.82Q124.73 130.77 125.01 130.99Q125.34 131.16 125.62 131.44Q125.9 131.66 126.13 132Q126.35 132.28 126.58 132.5Q127.47 133.96 129.49 134.8Q131.5 135.64 133.63 135.64Q135.82 135.64 137.5 134.63Q139.18 133.62 139.4 131.33Q139.4 129.82 138.73 128.75Q138.06 127.69 136.94 126.96Q135.87 126.18 134.47 125.67Q133.13 125.11 131.67 124.61Q130.27 124.05 128.93 123.49Q127.64 122.87 126.69 122.03Q125.01 120.52 123.72 119.12Q122.49 117.72 121.7 116.04Q120.92 114.3 120.7 112.06Q120.47 109.82 120.86 106.63Q121.37 104.34 123.78 102.6Q126.18 100.81 129.71 99.91Q133.24 99.02 137.38 99.18Q141.58 99.3 145.56 100.7ZM164.94 106.8Q165.44 107.86 166.06 109.32Q166.73 110.72 167.4 112.23Q168.13 113.74 168.91 115.2Q169.7 116.6 170.54 117.66Q171.1 117.1 172.22 115.54Q173.34 113.97 174.57 112.18Q175.8 110.33 176.92 108.7Q178.04 107.02 178.6 106.3Q178.77 106.13 179.05 105.62Q179.33 105.12 179.78 104.73Q180.22 104.28 180.84 104.17Q181.46 104 182.41 104.5Q183.25 104.84 183.14 105.74Q183.08 106.58 182.35 107.92Q181.62 109.21 180.34 111Q179.1 112.74 177.7 114.86Q177.42 115.26 176.81 116.1Q176.19 116.94 175.52 117.89Q174.9 118.78 174.4 119.57Q173.95 120.3 173.95 120.52Q174.01 122.87 173.95 124.72Q173.9 126.51 173.73 128.25Q173.62 129.93 173.5 131.78Q173.39 133.62 173.39 136.03Q173.39 137.1 172.61 137.66Q171.82 138.22 170.65 138.44Q169.53 138.66 168.24 138.66Q166.95 138.61 165.89 138.44Q164.82 138.44 163.82 138.38Q162.81 138.33 161.97 137.99Q161.18 137.6 160.68 136.87Q160.18 136.09 160.18 134.69L160.18 122.82Q159.9 121.75 159 120.74Q158.1 119.68 157.38 118.62Q155.7 115.93 154.35 113.07Q153.01 110.16 151.72 107.64Q150.71 105.68 150.88 104.56Q151.05 103.38 152.62 103.5Q153.57 103.61 154.97 103.55Q156.42 103.5 157.88 103.5Q159.39 103.5 160.79 103.61Q162.19 103.72 163.09 104.06Q164.15 104.39 164.38 105.23Q164.6 106.07 164.94 106.8ZM204.75 105.68Q205.48 105.96 206.15 106.46Q206.82 106.91 207.22 107.47Q207.66 107.98 207.78 108.54Q207.94 109.04 207.66 109.38Q206.99 110.16 205.98 109.99Q205.03 109.77 204.25 109.38Q204.08 109.38 203.3 108.98Q202.51 108.54 201.39 108.2Q200.33 107.81 199.1 107.75Q197.92 107.7 196.91 108.42Q195.85 109.15 195.46 110.22Q195.06 111.28 195.12 112.34Q195.23 113.41 195.68 114.36Q196.18 115.31 196.91 115.82Q199.15 117.94 201 119.34Q202.85 120.74 204.19 121.92Q205.59 123.1 206.43 124.38Q207.33 125.67 207.66 127.63Q208.34 130.99 207.27 133.29Q206.26 135.53 204.19 136.82Q202.12 138.1 199.43 138.55Q196.74 139 194.17 138.78Q191.59 138.5 189.46 137.66Q187.39 136.76 186.5 135.47Q186.44 135.36 186.1 134.97Q185.82 134.52 185.54 133.96Q185.32 133.4 185.21 132.84Q185.15 132.22 185.6 131.78Q186.16 131.22 186.61 131.16Q187.06 131.1 187.39 131.33Q187.78 131.55 188.06 132Q188.34 132.39 188.51 132.78Q189.18 133.79 190.64 134.41Q192.1 135.02 193.61 134.97Q195.18 134.91 196.41 134.07Q197.7 133.23 197.92 131.33Q197.92 129.2 196.97 128.08Q196.02 126.96 194.62 126.23Q193.27 125.45 191.7 124.78Q190.19 124.1 188.96 122.93Q187.39 121.7 186.27 120.58Q185.15 119.4 184.48 118Q183.81 116.6 183.58 114.81Q183.42 112.96 183.75 110.38Q183.98 108.26 186.1 106.69Q188.23 105.06 191.31 104.34Q194.39 103.61 197.98 103.89Q201.62 104.11 204.75 105.68ZM231.07 108.2Q230.96 108.37 230.9 109.26Q230.85 110.1 230.85 111.45Q230.85 112.79 230.85 114.42Q230.9 116.04 230.96 117.72Q231.02 119.34 231.02 120.91Q231.07 122.42 231.07 123.54L231.07 135.64Q231.07 136.37 230.96 137.26Q230.85 138.16 230.18 138.44Q229.9 138.55 229.06 138.61Q228.27 138.66 227.15 138.72Q226.09 138.72 224.86 138.72Q223.62 138.72 222.5 138.72Q221.44 138.66 220.66 138.66Q219.87 138.61 219.65 138.61Q218.53 138.61 217.91 138.33Q217.3 138.05 217.3 136.76L217.3 127.91L217.3 108.48Q217.3 108.26 216.46 108.2Q215.67 108.14 214.61 108.2Q213.6 108.2 212.65 108.26Q211.75 108.26 211.58 108.2Q210.74 108.14 210.3 108.03Q209.9 107.86 209.74 107.58Q209.62 107.3 209.62 106.8Q209.68 106.24 209.68 105.4Q210.02 104.9 210.46 104.73Q210.91 104.5 211.36 104.5Q211.86 104.45 212.37 104.5Q212.87 104.56 213.38 104.56L236.17 104.56Q237.06 104.56 237.57 104.62Q238.13 104.62 238.41 104.78Q238.74 104.95 238.86 105.34Q238.97 105.74 238.97 106.41Q238.97 107.02 238.63 107.36Q238.35 107.7 237.9 107.92Q237.51 108.09 237.01 108.14Q236.56 108.2 236.17 108.2Q234.82 108.2 233.48 108.03Q232.14 107.86 231.07 108.2ZM262.54 107.64L256.44 107.64Q256.22 108.87 256.16 110.83Q256.16 112.74 256.22 114.86Q256.27 116.99 256.33 119.12Q256.44 121.19 256.44 122.76Q257.11 122.98 257.67 123.04Q258.23 123.04 258.79 123.04Q259.35 122.98 259.91 122.93Q260.53 122.87 261.2 122.87Q262.43 122.93 263.22 122.98Q264.06 122.98 264.56 123.21Q265.06 123.38 265.29 123.88Q265.51 124.33 265.51 125.22Q265.51 125.9 264.39 126.12Q263.33 126.34 261.87 126.4Q260.42 126.4 258.85 126.4Q257.34 126.34 256.44 126.51Q256.22 127.46 256.22 128.47Q256.22 129.42 256.22 130.43Q256.27 131.44 256.22 132.5Q256.22 133.57 256.05 134.63Q256.61 134.86 257.67 134.86Q258.79 134.86 260.08 134.8Q261.42 134.74 262.77 134.74Q264.17 134.69 265.29 134.86Q266.41 134.97 267.08 135.36Q267.81 135.75 267.81 136.59Q267.81 137.43 267.14 137.88Q266.52 138.27 265.4 138.44Q264.28 138.61 262.77 138.61Q261.31 138.55 259.69 138.55Q257.39 138.33 254.37 138.55Q251.34 138.72 248.6 138.78Q245.86 138.78 243.9 138.33Q241.99 137.82 241.88 136.2Q241.54 130.04 241.6 123.71Q241.66 117.38 241.66 110.94Q241.66 110.22 241.66 109.38Q241.66 108.48 241.71 107.7Q241.77 106.86 241.82 106.24Q241.94 105.57 242.1 105.23Q242.5 104.9 243.73 104.73Q244.96 104.5 246.42 104.45Q247.93 104.34 249.33 104.34Q250.73 104.28 251.57 104.28L259.69 104.28Q260.75 104.28 262.1 104.17Q263.44 104.06 264.62 104.17Q265.79 104.22 266.58 104.62Q267.36 105.01 267.36 106.07Q267.36 106.8 266.8 107.14Q266.3 107.47 265.51 107.58Q264.78 107.7 263.94 107.7Q263.1 107.64 262.54 107.64ZM270.66 105.51Q271.34 104.45 272.57 104.34Q273.86 104.22 274.92 104.5Q276.15 104.9 277.5 105.96Q278.9 106.97 280.24 108.31Q281.58 109.6 282.76 110.89Q283.99 112.18 284.83 113.07Q285.56 112.34 286.79 110.94Q288.02 109.49 289.42 108.03Q290.88 106.58 292.28 105.46Q293.74 104.28 294.8 104.11Q296.54 103.94 297.71 104.56Q298.89 105.18 299.62 106.24Q300.34 107.3 300.62 108.65Q300.9 109.94 300.9 111.17Q301.13 113.86 301.3 116.94Q301.46 119.96 301.46 123.21Q301.52 126.46 301.41 129.76Q301.3 133.06 300.9 136.26Q300.9 136.98 300.06 137.49Q299.22 137.99 297.94 138.27Q296.7 138.55 295.19 138.61Q293.74 138.66 292.39 138.5Q291.1 138.33 290.15 137.94Q289.2 137.49 289.09 136.76Q288.75 135.7 288.7 133.62Q288.64 131.55 288.64 129.09Q288.7 126.57 288.75 123.94Q288.81 121.3 288.64 119.18Q288.53 118.67 288.14 118.9Q287.74 119.12 287.18 119.68Q286.68 120.24 286.01 121.08Q285.39 121.86 284.66 122.59Q283.99 123.32 283.32 123.88Q282.65 124.38 282.03 124.38Q280.97 124.38 279.68 123.38Q278.45 122.37 277.27 121.19Q276.15 119.96 275.2 119.06Q274.3 118.11 273.91 118.28Q273.74 118.28 273.69 118.9Q273.63 119.51 273.58 120.35Q273.52 121.19 273.52 122.09Q273.52 122.98 273.52 123.54Q273.35 126.4 273.35 128.86Q273.41 131.27 273.41 133.18Q273.46 135.08 273.41 136.37Q273.41 137.66 273.07 138.16Q272.9 138.33 272.34 138.5Q271.78 138.61 271.17 138.55Q270.61 138.44 270.16 138.05Q269.71 137.66 269.71 136.76L269.71 117.27Q269.71 116.04 269.66 114.25Q269.6 112.46 269.66 110.72Q269.71 108.93 269.94 107.47Q270.16 106.02 270.66 105.51ZM342.23 104.84Q342.06 104.84 342.01 105.79Q341.95 106.69 341.9 108.2Q341.9 109.66 341.9 111.56Q341.9 113.46 341.9 115.42Q341.95 117.33 341.95 119.12Q342.01 120.91 342.01 122.26Q342.01 125.5 342.18 128.92Q342.4 132.34 342.4 135.58Q342.4 136.37 342.34 137.1Q342.29 137.82 341.5 138.27Q341 138.78 339.49 138.94Q338.03 139.11 336.3 139.11Q334.62 139.11 333.05 139.06Q331.48 138.94 330.81 138.94Q328.74 138.94 327.5 138.22Q326.33 137.49 325.82 135.75Q325.71 135.36 325.71 134.24Q325.71 133.06 325.71 131.72Q325.77 130.38 325.77 129.2Q325.82 128.02 325.82 127.52Q325.71 122.09 325.49 116.04Q325.26 109.99 325.26 104.56Q325.26 104.39 324.42 104.34Q323.64 104.22 322.58 104.22Q321.57 104.17 320.62 104.17Q319.72 104.17 319.5 104.17Q319.1 104.17 318.49 104.11Q317.93 104 317.48 103.22Q317.31 102.99 317.31 102.6Q317.31 102.15 317.37 101.82Q317.48 101.42 317.65 101.14Q317.82 100.81 317.98 100.75Q318.54 100.53 319.78 100.42Q321.01 100.3 322.52 100.25Q324.09 100.19 325.77 100.19Q327.5 100.19 329.07 100.19Q330.7 100.19 331.98 100.25Q333.27 100.25 333.94 100.25Q337.25 100.25 340.44 100.36Q343.63 100.47 347.33 100.47Q349.4 100.47 350.02 100.81Q350.63 101.14 350.63 102.38Q350.63 103.44 350.35 103.94Q350.07 104.39 349.51 104.56Q349.01 104.73 348.22 104.73Q347.5 104.73 346.6 104.73Q345.37 104.73 344.47 104.73Q343.63 104.73 342.23 104.84ZM374.15 107.64L368.05 107.64Q367.82 108.87 367.77 110.83Q367.77 112.74 367.82 114.86Q367.88 116.99 367.94 119.12Q368.05 121.19 368.05 122.76Q368.72 122.98 369.28 123.04Q369.84 123.04 370.4 123.04Q370.96 122.98 371.52 122.93Q372.14 122.87 372.81 122.87Q374.04 122.93 374.82 122.98Q375.66 122.98 376.17 123.21Q376.67 123.38 376.9 123.88Q377.12 124.33 377.12 125.22Q377.12 125.9 376 126.12Q374.94 126.34 373.48 126.4Q372.02 126.4 370.46 126.4Q368.94 126.34 368.05 126.51Q367.82 127.46 367.82 128.47Q367.82 129.42 367.82 130.43Q367.88 131.44 367.82 132.5Q367.82 133.57 367.66 134.63Q368.22 134.86 369.28 134.86Q370.4 134.86 371.69 134.8Q373.03 134.74 374.38 134.74Q375.78 134.69 376.9 134.86Q378.02 134.97 378.69 135.36Q379.42 135.75 379.42 136.59Q379.42 137.43 378.74 137.88Q378.13 138.27 377.01 138.44Q375.89 138.61 374.38 138.61Q372.92 138.55 371.3 138.55Q369 138.33 365.98 138.55Q362.95 138.72 360.21 138.78Q357.46 138.78 355.5 138.33Q353.6 137.82 353.49 136.2Q353.15 130.04 353.21 123.71Q353.26 117.38 353.26 110.94Q353.26 110.22 353.26 109.38Q353.26 108.48 353.32 107.7Q353.38 106.86 353.43 106.24Q353.54 105.57 353.71 105.23Q354.1 104.9 355.34 104.73Q356.57 104.5 358.02 104.45Q359.54 104.34 360.94 104.34Q362.34 104.28 363.18 104.28L371.3 104.28Q372.36 104.28 373.7 104.17Q375.05 104.06 376.22 104.17Q377.4 104.22 378.18 104.62Q378.97 105.01 378.97 106.07Q378.97 106.8 378.41 107.14Q377.9 107.47 377.12 107.58Q376.39 107.7 375.55 107.7Q374.71 107.64 374.15 107.64ZM401.59 105.68Q402.32 105.96 402.99 106.46Q403.66 106.91 404.06 107.47Q404.5 107.98 404.62 108.54Q404.78 109.04 404.5 109.38Q403.83 110.16 402.82 109.99Q401.87 109.77 401.09 109.38Q400.92 109.38 400.14 108.98Q399.35 108.54 398.23 108.2Q397.17 107.81 395.94 107.75Q394.76 107.7 393.75 108.42Q392.69 109.15 392.3 110.22Q391.9 111.28 391.96 112.34Q392.07 113.41 392.52 114.36Q393.02 115.31 393.75 115.82Q395.99 117.94 397.84 119.34Q399.69 120.74 401.03 121.92Q402.43 123.1 403.27 124.38Q404.17 125.67 404.5 127.63Q405.18 130.99 404.11 133.29Q403.1 135.53 401.03 136.82Q398.96 138.1 396.27 138.55Q393.58 139 391.01 138.78Q388.43 138.5 386.3 137.66Q384.23 136.76 383.34 135.47Q383.28 135.36 382.94 134.97Q382.66 134.52 382.38 133.96Q382.16 133.4 382.05 132.84Q381.99 132.22 382.44 131.78Q383 131.22 383.45 131.16Q383.9 131.1 384.23 131.33Q384.62 131.55 384.9 132Q385.18 132.39 385.35 132.78Q386.02 133.79 387.48 134.41Q388.94 135.02 390.45 134.97Q392.02 134.91 393.25 134.07Q394.54 133.23 394.76 131.33Q394.76 129.2 393.81 128.08Q392.86 126.96 391.46 126.23Q390.11 125.45 388.54 124.78Q387.03 124.1 385.8 122.93Q384.23 121.7 383.11 120.58Q381.99 119.4 381.32 118Q380.65 116.6 380.42 114.81Q380.26 112.96 380.59 110.38Q380.82 108.26 382.94 106.69Q385.07 105.06 388.15 104.34Q391.23 103.61 394.82 103.89Q398.46 104.11 401.59 105.68ZM427.91 108.2Q427.8 108.37 427.74 109.26Q427.69 110.1 427.69 111.45Q427.69 112.79 427.69 114.42Q427.74 116.04 427.8 117.72Q427.86 119.34 427.86 120.91Q427.91 122.42 427.91 123.54L427.91 135.64Q427.91 136.37 427.8 137.26Q427.69 138.16 427.02 138.44Q426.74 138.55 425.9 138.61Q425.11 138.66 423.99 138.72Q422.93 138.72 421.7 138.72Q420.46 138.72 419.34 138.72Q418.28 138.66 417.5 138.66Q416.71 138.61 416.49 138.61Q415.37 138.61 414.75 138.33Q414.14 138.05 414.14 136.76L414.14 127.91L414.14 108.48Q414.14 108.26 413.3 108.2Q412.51 108.14 411.45 108.2Q410.44 108.2 409.49 108.26Q408.59 108.26 408.42 108.2Q407.58 108.14 407.14 108.03Q406.74 107.86 406.58 107.58Q406.46 107.3 406.46 106.8Q406.52 106.24 406.52 105.4Q406.86 104.9 407.3 104.73Q407.75 104.5 408.2 104.5Q408.7 104.45 409.21 104.5Q409.71 104.56 410.22 104.56L433.01 104.56Q433.9 104.56 434.41 104.62Q434.97 104.62 435.25 104.78Q435.58 104.95 435.7 105.34Q435.81 105.74 435.81 106.41Q435.81 107.02 435.47 107.36Q435.19 107.7 434.74 107.92Q434.35 108.09 433.85 108.14Q433.4 108.2 433.01 108.2Q431.66 108.2 430.32 108.03Q428.98 107.86 427.91 108.2Z" />
</svg>